PathFileType	4	(X/Y/Z)	16_2_106_p1_0-279.trc
DataRate	CameraRate	NumFrames	NumMarkers	Units	OrigDataRate	OrigDataStartFrame	OrigNumFrames
59.0	59.0	5	27	m	59.0	210	280
Frame#	Time	RHip			RKnee			RAnkle			RBigToe			RSmallToe			RHeel			LHip			LKnee			LAnkle			LBigToe			LSmallToe			LHeel			Neck			Head			Nose			RShoulder			RElbow			RWrist			RThumb			RIndex			RPinky			LShoulder			LElbow			LWrist			LThumb			LIndex			LPinky			
		X1	Y1	Z1	X2	Y2	Z2	X3	Y3	Z3	X4	Y4	Z4	X5	Y5	Z5	X6	Y6	Z6	X7	Y7	Z7	X8	Y8	Z8	X9	Y9	Z9	X10	Y10	Z10	X11	Y11	Z11	X12	Y12	Z12	X13	Y13	Z13	X14	Y14	Z14	X15	Y15	Z15	X16	Y16	Z16	X17	Y17	Z17	X18	Y18	Z18	X19	Y19	Z19	X20	Y20	Z20	X21	Y21	Z21	X22	Y22	Z22	X23	Y23	Z23	X24	Y24	Z24	X25	Y25	Z25	X26	Y26	Z26	X27	Y27	Z27	
210	3.559322033898305	0.3135691388389238	0.5076056316610627	0.5253623259547946	0.2968086259528587	0.6287985298104292	0.9611178109317792	0.27237304373004323	0.7337990533564193	1.373529777655301	0.24564502073345998	0.46255168079171216	1.3753759938108097	0.31510932584803963	0.4951324275197511	1.3828712509168382	0.2468540324915813	0.7903734827618913	1.419056894678178	0.09538057947652093	0.5098461251241659	0.5172411277232646	0.0894045008070582	0.6258361087677053	0.9407708320313691	0.09844216425219589	0.7163215890024374	1.3549247629332004	0.06447665961554233	0.43289857781605345	1.3526289484415956	0.00962707204339402	0.5231230096278471	1.3739648758774514	0.122594704570292	0.7938496181473776	1.4372244803220986	0.2676793498919034	0.44689225539919697	-0.16014619007997147	0.31911551001452065	0.4624859789337844	-0.4096231272275104	0.2672799523621634	0.3809228807940519	-0.2815408369679384	0.4298892861878831	0.4892513249549507	-0.029223395604828454	0.46121737999486845	0.513773803585205	0.26761396591157455	0.4594449959052164	0.36994038590608136	0.5408017636035236	0.4094091910235398	0.27058133625926095	0.6405031284384262	0.42361623676463395	0.2830349565068672	0.6600705514042269	0.4508105353796691	0.4117725630017179	0.694785795694719	0.08310261539788033	0.4486496027267256	-0.07841244180025217	-0.020078837854160845	0.4765152761075441	0.19775789005584965	-0.041846191848378685	0.40191551715347684	0.4807862447633804	0.011125356386097844	0.364488736171679	0.5781312190482459	-0.03578870939844784	0.3340786310701573	0.595069474742171	-0.057737684838092364	0.35718314439906107	0.5895987910256452
211	3.5762711864406778	0.3135764901248891	0.5077465889315718	0.5253781914789604	0.2968749118205442	0.6288762957131503	0.9610667359543056	0.2736645374797935	0.735939728124329	1.3792511179245217	0.24986769683765922	0.47551719427456296	1.3813654562690132	0.31845650536692127	0.4804128999881636	1.3753242007954865	0.24836199824370697	0.7928420077641547	1.4246242070410293	0.09537509560936082	0.5098135041365752	0.5172280243363931	0.08507670688650139	0.6417626010907443	0.9459867407839145	0.09943592143317989	0.715575874687501	1.3502824425198918	0.06029317827288637	0.44721525159408354	1.3596818941376092	0.005781525638913469	0.5371640794229319	1.3768201116594792	0.12263549766855876	0.7938732730439342	1.437258149650884	0.2676501228575545	0.4468383055380607	-0.16014623287166352	0.31924419361557144	0.46244591890997455	-0.4096190041911095	0.26728575080599654	0.3809876843457058	-0.2815058350900592	0.4298323758612691	0.489081045447045	-0.025597549524226083	0.4611868042416767	0.5136972840227298	0.2675993726455594	0.4635690415152853	0.3706382635899568	0.5407504419270692	0.40947194264025805	0.2705178704132171	0.640496769248736	0.4236634773933856	0.28287509163818336	0.6599947600378696	0.4508349871039837	0.4115844491467391	0.6947431493434233	0.08306628152721829	0.4485823235606336	-0.07836915867550846	-0.01999191144501727	0.47653999138861247	0.19773159765718185	-0.04187724333313872	0.4016826799526725	0.48080045722754877	0.013813432472254967	0.37718101024259143	0.5807598845608295	-0.03530314389644423	0.33607094231605866	0.599304775841913	-0.05770636679962838	0.35749054877693903	0.5896941401603086
212	3.593220338983051	0.313572677683925	0.5075482521201041	0.5252806643063224	0.296904084335207	0.6287988464379546	0.9609835911752143	0.27359133494679166	0.7357599429868575	1.3791003230714478	0.24991906952458495	0.4753927003774639	1.3812748515231268	0.3185468092315553	0.48069597540772724	1.3752531546896016	0.247045338239878	0.7900114392487012	1.4184846274070926	0.09483481552680528	0.5080728543870681	0.5130113638526411	0.0893157231382413	0.6258454570426358	0.9406741673482424	0.10035487531841807	0.7177684875129546	1.3556335769072456	0.06025290188166467	0.4471637656061537	1.3595597692077486	0.005806354202020858	0.5371714994841438	1.3766446580758607	0.12360864015822971	0.7962325110739422	1.4428618817191003	0.26779465733972335	0.44686294783380026	-0.15676424213880225	0.31935678589595745	0.4621435609591288	-0.4096212921607695	0.2674478483821953	0.38163011199561425	-0.27803666640177144	0.4297891843632611	0.4889588945502079	-0.025557218607029836	0.46121753741465427	0.5136880651025048	0.26773894761532363	0.46356524419406314	0.3706870686380194	0.5409310671214863	0.40943522940407195	0.2705318182226918	0.6403978202329003	0.4234852672717181	0.2834683572252898	0.6572361992744411	0.450613521356861	0.41241461606539764	0.6916650293172216	0.08302719806316643	0.44837039978853915	-0.07827933121048326	-0.015275855296236913	0.4633488579264458	0.20008676882414655	-0.03880759845879836	0.4137704063215802	0.4866962641936856	0.014026242313263968	0.38999323277871856	0.5834173348318322	-0.032845523146745687	0.348143937989789	0.6019878000585552	-0.057447760532871005	0.3582374635345182	0.5899083618532107
213	3.610169491525424	0.3135231121982904	0.5074881837409612	0.5252666860854951	0.2968825662927939	0.6289235550402144	0.9609804490729191	0.27362196641568204	0.7363859374205742	1.3795843772245515	0.24163931854694803	0.4778863608455993	1.3832126739784005	0.31507221194245344	0.4955519474986541	1.3830489049028918	0.24712044193932936	0.7910941877325041	1.4195667082416457	0.09468358457071244	0.5079018751241039	0.5130162913198354	0.08933425745197915	0.626015015938337	0.9407629555345454	0.10297861170065813	0.7309605148405427	1.3566006045664527	0.060098932334519815	0.4473583556246685	1.359566040864325	0.0057217371126766225	0.5373807386874547	1.3767109031371518	0.12269117383232192	0.7941208487062271	1.437134295956382	0.26780777949924794	0.4467979386192083	-0.1567789869696442	0.3226062684023726	0.4496222195301792	-0.40522632073023096	0.2674955528544218	0.3812226386780318	-0.2747152632796401	0.4297680320674217	0.4891190012036541	-0.02554820435251944	0.4612773500042567	0.5138136087997934	0.26781122936259805	0.46353195156504523	0.3708123736974383	0.5410731373998894	0.4094378622389687	0.27040095154328575	0.6403600538753569	0.4235089770201295	0.2834594919800713	0.6572814333780505	0.4542249222859949	0.41148192736362205	0.6912516472038868	0.08312321284224024	0.4485163543673434	-0.07834794125478002	-0.02292609433364862	0.4643308557015773	0.20042049253779948	-0.03871512953549951	0.4139814735520621	0.48664238183634484	0.009577872000470528	0.3903853863197378	0.5837204449143758	-0.033450694666423274	0.3470354886125258	0.5982895928613898	-0.05755723841565584	0.35774566204490343	0.5895972567851545
214	3.6271186440677967	0.31350355198093605	0.5075134498388918	0.5252217070249526	0.2968481494613301	0.6291059138121688	0.9611565330882366	0.27255993817898416	0.7340445467212837	1.3739013663565478	0.2498245650302703	0.4751035292333317	1.381388840816456	0.3192680563313929	0.5084505465001661	1.3888301872044468	0.2474288327744521	0.7908418765319943	1.419307198206654	0.09529499681061136	0.50941945844908	0.5170960791196486	0.08936289879245164	0.6264258271858769	0.9409308641334404	0.10281484186130983	0.7312326721762764	1.3570482659450585	0.06003464058774939	0.44749864130968153	1.3598145526633485	0.005617717385430566	0.5375291851163485	1.3771995827667767	0.12263404645552439	0.7940351248887847	1.4373606628667186	0.26779427559379937	0.4467544840140898	-0.156690911490115	0.318618590517999	0.43876960211953364	-0.40375074337898437	0.2676642289420293	0.3819014279106741	-0.2713138473853449	0.42974363766386137	0.4891657714418412	-0.02555470650054197	0.4612460298271874	0.5138588400257961	0.26779282707579	0.4631316735996694	0.3709293989969754	0.5447876878777672	0.40920870121989544	0.27030523660132066	0.6440724624675672	0.42650114578488946	0.2843512135567107	0.6614302964625274	0.45064505860132015	0.41232617292934315	0.6916591974355786	0.08313708028186526	0.4484215727007325	-0.07833723811681594	-0.018308532096815447	0.45125994239660594	0.19909728738164464	-0.03873991245973708	0.4139598606705715	0.4867770810215591	0.014021353433441772	0.3902340522165187	0.5836110366047458	-0.032822549360427486	0.34830905935036965	0.6025141358581465	-0.05753252140420236	0.35811038609424156	0.5898489237069516
